<svg width="200" height="200" viewBox="0 0 200 200" xmlns="http://www.w3.org/2000/svg">
  <!-- Background circle -->
  <circle cx="100" cy="100" r="90" fill="#3498db" opacity="0.1"/>
  
  <!-- Main community circle -->
  <circle cx="100" cy="100" r="60" fill="#3498db" stroke="#2980b9" stroke-width="3"/>
  
  <!-- People icons around the circle -->
  <!-- Person 1 (top) -->
  <circle cx="100" cy="40" r="8" fill="#e74c3c"/>
  <rect x="96" y="48" width="8" height="12" fill="#e74c3c" rx="4"/>
  
  <!-- Person 2 (top-right) -->
  <circle cx="140" cy="60" r="8" fill="#f39c12"/>
  <rect x="136" y="68" width="8" height="12" fill="#f39c12" rx="4"/>
  
  <!-- Person 3 (right) -->
  <circle cx="160" cy="100" r="8" fill="#27ae60"/>
  <rect x="156" y="108" width="8" height="12" fill="#27ae60" rx="4"/>
  
  <!-- Person 4 (bottom-right) -->
  <circle cx="140" cy="140" r="8" fill="#9b59b6"/>
  <rect x="136" y="148" width="8" height="12" fill="#9b59b6" rx="4"/>
  
  <!-- Person 5 (bottom) -->
  <circle cx="100" cy="160" r="8" fill="#e67e22"/>
  <rect x="96" y="168" width="8" height="12" fill="#e67e22" rx="4"/>
  
  <!-- Person 6 (bottom-left) -->
  <circle cx="60" cy="140" r="8" fill="#1abc9c"/>
  <rect x="56" y="148" width="8" height="12" fill="#1abc9c" rx="4"/>
  
  <!-- Person 7 (left) -->
  <circle cx="40" cy="100" r="8" fill="#34495e"/>
  <rect x="36" y="108" width="8" height="12" fill="#34495e" rx="4"/>
  
  <!-- Person 8 (top-left) -->
  <circle cx="60" cy="60" r="8" fill="#e91e63"/>
  <rect x="56" y="68" width="8" height="12" fill="#e91e63" rx="4"/>
  
  <!-- Center empowerment symbol -->
  <circle cx="100" cy="100" r="15" fill="#2ecc71"/>
  <path d="M100 85 L110 95 L100 105 L90 95 Z" fill="white"/>
  
  <!-- Connection lines -->
  <line x1="100" y1="40" x2="100" y2="60" stroke="#3498db" stroke-width="2" opacity="0.6"/>
  <line x1="140" y1="60" x2="120" y2="80" stroke="#3498db" stroke-width="2" opacity="0.6"/>
  <line x1="160" y1="100" x2="140" y2="100" stroke="#3498db" stroke-width="2" opacity="0.6"/>
  <line x1="140" y1="140" x2="120" y2="120" stroke="#3498db" stroke-width="2" opacity="0.6"/>
  <line x1="100" y1="160" x2="100" y2="140" stroke="#3498db" stroke-width="2" opacity="0.6"/>
  <line x1="60" y1="140" x2="80" y2="120" stroke="#3498db" stroke-width="2" opacity="0.6"/>
  <line x1="40" y1="100" x2="60" y2="100" stroke="#3498db" stroke-width="2" opacity="0.6"/>
  <line x1="60" y1="60" x2="80" y2="80" stroke="#3498db" stroke-width="2" opacity="0.6"/>
</svg> 